#N canvas 291 54 628 420 12;
#X obj 363 155 array define hann-1024 1024;
#X obj 412 222 array size hann-1024;
#X obj 58 167 until;
#X obj 58 195 f;
#X obj 96 188 + 1;
#X obj 143 181 sel 0;
#X obj 58 94 t b b;
#X obj 96 214 mod 1024;
#X obj 58 252 expr 0.5 * (1 - cos(2 * 3.14159 * $f1 / ($f2 - 1)));
#X obj 58 331 tabwrite hann-1024;
#X obj 58 62 loadbang;
#X connect 1 0 8 1;
#X connect 2 0 3 0;
#X connect 3 0 4 0;
#X connect 3 0 8 0;
#X connect 3 0 9 1;
#X connect 4 0 7 0;
#X connect 5 0 2 1;
#X connect 6 0 2 0;
#X connect 6 1 1 0;
#X connect 7 0 3 1;
#X connect 7 0 5 0;
#X connect 8 0 9 0;
#X connect 10 0 6 0;
