#N canvas 52 284 450 300 12;
#X obj 112 96 osc~ 0.4;
#X obj 112 212 *~;
#X obj 112 175 +~ 1;
#X text 174 95 square;
#X obj 112 151 clip~ -1 1;
#X obj 112 127 *~ 1e+10;
#X obj 66 52 inlet frequency;
#X obj 186 52 inlet phase;
#X obj 280 52 inlet match;
#X obj 75 244 outlet~ output;
#X obj 151 175 ramp-sel \$1;
#X connect 0 0 5 0;
#X connect 1 0 9 0;
#X connect 2 0 1 0;
#X connect 4 0 2 0;
#X connect 5 0 4 0;
#X connect 6 0 0 0;
#X connect 7 0 0 1;
#X connect 8 0 10 0;
#X connect 10 0 1 1;
