#N canvas 109 284 450 300 12;
#X obj 66 171 *~;
#X obj 66 52 inlet frequency;
#X obj 186 52 inlet phase;
#X obj 280 52 inlet match;
#X obj 84 144 ramp-sel \$1;
#X obj 66 195 outlet~ output;
#X obj 66 89 phasor~ 0.4;
#X obj 66 113 *~ 2;
#X connect 0 0 5 0;
#X connect 1 0 6 0;
#X connect 2 0 6 1;
#X connect 3 0 4 0;
#X connect 4 0 0 1;
#X connect 6 0 7 0;
#X connect 7 0 0 0;
