#N canvas 265 190 450 300 12;
#X obj 19 56 sel 0 1 2 3;
#X symbolatom 19 110 10 0 0 0 - - - 0;
#X msg 19 85 symbol sine;
#X symbolatom 38 159 10 0 0 0 - - - 0;
#X symbolatom 114 110 10 0 0 0 - - - 0;
#X symbolatom 163 160 10 0 0 0 - - - 0;
#X msg 114 85 symbol saw;
#X msg 38 134 symbol triangle;
#X msg 163 135 symbol square;
#X obj 19 25 inlet selection;
#X obj 19 201 outlet shape;
#X connect 0 0 2 0;
#X connect 0 1 7 0;
#X connect 0 2 6 0;
#X connect 0 3 8 0;
#X connect 1 0 10 0;
#X connect 2 0 1 0;
#X connect 3 0 10 0;
#X connect 4 0 10 0;
#X connect 5 0 10 0;
#X connect 6 0 4 0;
#X connect 7 0 3 0;
#X connect 8 0 5 0;
#X connect 9 0 0 0;
