#N canvas 435 25 868 667 12;
#X obj 41 284 *~;
#X obj 285 240 loadbang;
#X msg 285 264 0.5;
#X obj 41 312 +~;
#X obj 178 293 expr 1 - (2 * $f1);
#X obj 41 49 inlet ModFreq;
#X obj 178 264 inlet ModDepth;
#X obj 41 350 outlet~ Modulation;
#X obj 288 85 inlet selection;
#X obj 178 32 loadbang;
#X msg 178 55 0;
#X obj 41 218 snake~ in 4, f 17;
#X obj 41 242 snake~ out 4;
#X obj 288 149 outlet Shape;
#X obj 41 106 modSine 0;
#X obj 118 158 modSaw 2;
#X obj 79 131 modTriangle 1;
#X obj 157 185 modSquare 3;
#X obj 288 122 shapePrint;
#X connect 0 0 3 0;
#X connect 1 0 2 0;
#X connect 2 0 4 0;
#X connect 3 0 7 0;
#X connect 4 0 3 1;
#X connect 5 0 14 0;
#X connect 5 0 16 0;
#X connect 5 0 15 0;
#X connect 5 0 17 0;
#X connect 6 0 0 1;
#X connect 6 0 4 0;
#X connect 8 0 14 2;
#X connect 8 0 16 2;
#X connect 8 0 15 2;
#X connect 8 0 17 2;
#X connect 8 0 18 0;
#X connect 9 0 10 0;
#X connect 10 0 14 1;
#X connect 10 0 16 1;
#X connect 10 0 15 1;
#X connect 10 0 17 1;
#X connect 11 0 12 0;
#X connect 12 0 0 0;
#X connect 12 1 0 0;
#X connect 12 2 0 0;
#X connect 12 3 0 0;
#X connect 14 0 11 0;
#X connect 15 0 11 2;
#X connect 16 0 11 1;
#X connect 17 0 11 3;
#X connect 18 0 13 0;
