#N canvas 409 177 871 515 12;
#X obj 54 276 *~;
#X floatatom 357 200 5 0 0 0 - - - 0;
#X obj 159 102 osc~ 0.4;
#X obj 467 143 loadbang;
#X msg 466 175 0.5;
#X floatatom 356 243 5 0 0 0 - - - 0;
#X obj 54 304 +~;
#X obj 159 124 +~ 1;
#X obj 356 220 expr 1 - (2 * $f1);
#X obj 159 49 inlet ModFreq;
#X obj 357 174 inlet ModDepth;
#X obj 54 328 outlet~ Modulation;
#X obj 54 49 phasor~ 0.4;
#X obj 54 182 *~;
#X obj 159 157 *~;
#X obj 53 12 inlet selection;
#X obj 54 73 expr~ 2 * (abs(($v1 * 2) - 1));
#X obj 323 9 loadbang;
#X msg 323 32 0;
#X obj 72 149 ramp-sel 1;
#X obj 197 126 ramp-sel 0;
#X obj 368 92 phasor~ 0.4;
#X obj 368 139 *~;
#X obj 467 92 ramp-sel 2;
#X obj 368 116 *~ 2;
#X obj 54 210 snake~ in 4, f 17;
#X obj 53 234 snake~ out 4;
#X obj 561 159 osc~ 0.4;
#X obj 562 275 *~;
#X obj 668 127 ramp-sel 3;
#X obj 561 190 *~ inf;
#X obj 561 214 clip~ -1 1;
#X obj 561 238 +~ 1;
#X obj 244 442 outlet Shape;
#X obj 244 297 sel 0 1 2 3;
#X listbox 262 347 20 0 0 0 - - - 0;
#X listbox 281 374 20 0 0 0 - - - 0;
#X listbox 244 322 20 0 0 0 - - - 0;
#X listbox 299 401 20 0 0 0 - - - 0;
#X connect 0 0 6 0;
#X connect 1 0 8 0;
#X connect 2 0 7 0;
#X connect 3 0 4 0;
#X connect 4 0 1 0;
#X connect 6 0 11 0;
#X connect 7 0 14 0;
#X connect 8 0 6 1;
#X connect 8 0 5 0;
#X connect 9 0 2 0;
#X connect 9 0 12 0;
#X connect 9 0 21 0;
#X connect 9 0 27 0;
#X connect 10 0 0 1;
#X connect 10 0 1 0;
#X connect 12 0 16 0;
#X connect 13 0 25 0;
#X connect 14 0 25 1;
#X connect 15 0 19 0;
#X connect 15 0 20 0;
#X connect 15 0 23 0;
#X connect 15 0 29 0;
#X connect 15 0 34 0;
#X connect 16 0 13 0;
#X connect 17 0 18 0;
#X connect 18 0 12 1;
#X connect 18 0 2 1;
#X connect 18 0 21 1;
#X connect 18 0 27 1;
#X connect 19 0 13 1;
#X connect 20 0 14 1;
#X connect 21 0 24 0;
#X connect 22 0 25 2;
#X connect 23 0 22 1;
#X connect 24 0 22 0;
#X connect 25 0 26 0;
#X connect 26 0 0 0;
#X connect 26 1 0 0;
#X connect 26 2 0 0;
#X connect 26 3 0 0;
#X connect 27 0 30 0;
#X connect 28 0 25 3;
#X connect 29 0 28 1;
#X connect 30 0 31 0;
#X connect 31 0 32 0;
#X connect 32 0 28 0;
#X connect 34 0 37 0;
#X connect 34 1 35 0;
#X connect 34 2 36 0;
#X connect 34 3 38 0;
#X connect 35 0 33 0;
#X connect 36 0 33 0;
#X connect 37 0 33 0;
#X connect 38 0 33 0;
