#N canvas 293 177 871 515 12;
#X obj 54 276 *~;
#X floatatom 357 200 5 0 0 0 - - - 0;
#X obj 159 102 osc~ 0.4;
#X obj 467 143 loadbang;
#X msg 466 175 0.5;
#X floatatom 356 243 5 0 0 0 - - - 0;
#X obj 54 304 +~;
#X obj 159 124 +~ 1;
#X obj 356 220 expr 1 - (2 * $f1);
#X obj 159 49 inlet ModFreq;
#X obj 357 174 inlet ModDepth;
#X obj 54 328 outlet~ Modulation;
#X obj 54 49 phasor~ 0.4;
#X obj 54 209 snake~ in 2;
#X obj 54 182 *~;
#X obj 159 157 *~;
#X obj 72 15 inlet selection;
#X obj 54 234 snake~ out 2;
#X obj 54 73 expr~ 2 * (abs(($v1 * 2) - 1));
#X obj 317 49 loadbang;
#X msg 317 73 0;
#X obj 72 149 ramp-sel 1;
#X obj 197 126 ramp-sel 0;
#X connect 0 0 6 0;
#X connect 1 0 8 0;
#X connect 2 0 7 0;
#X connect 3 0 4 0;
#X connect 4 0 1 0;
#X connect 6 0 11 0;
#X connect 7 0 15 0;
#X connect 8 0 6 1;
#X connect 8 0 5 0;
#X connect 9 0 2 0;
#X connect 9 0 12 0;
#X connect 10 0 0 1;
#X connect 10 0 1 0;
#X connect 12 0 18 0;
#X connect 13 0 17 0;
#X connect 14 0 13 0;
#X connect 15 0 13 1;
#X connect 16 0 21 0;
#X connect 16 0 22 0;
#X connect 17 0 0 0;
#X connect 17 1 0 0;
#X connect 18 0 14 0;
#X connect 19 0 20 0;
#X connect 20 0 12 1;
#X connect 20 0 2 1;
#X connect 20 0 21 0;
#X connect 21 0 14 1;
#X connect 22 0 15 1;
