#N canvas 435 25 868 667 12;
#X obj 53 610 *~;
#X floatatom 191 597 5 0 0 0 - - - 0;
#X obj 54 184 osc~ 0.4;
#X obj 300 554 loadbang;
#X msg 300 578 0.5;
#X floatatom 190 640 5 0 0 0 - - - 0;
#X obj 53 638 +~;
#X obj 54 206 +~ 1;
#X obj 190 617 expr 1 - (2 * $f1);
#X obj 94 102 inlet ModFreq;
#X obj 191 566 inlet ModDepth;
#X obj 53 676 outlet~ Modulation;
#X obj 93 245 phasor~ 0.4;
#X obj 91 340 *~;
#X obj 54 239 *~;
#X obj 390 96 inlet selection;
#X obj 93 269 expr~ 2 * (abs(($v1 * 2) - 1));
#X obj 401 140 loadbang;
#X msg 401 163 0;
#X obj 109 307 ramp-sel 1;
#X obj 92 208 ramp-sel 0;
#X obj 130 337 phasor~ 0.4;
#X obj 130 384 *~;
#X obj 166 361 ramp-sel 2;
#X obj 130 361 *~ 2;
#X obj 53 544 snake~ in 4, f 17;
#X obj 53 568 snake~ out 4;
#X obj 169 396 osc~ 0.4;
#X obj 169 512 *~;
#X obj 208 475 ramp-sel 3;
#X obj 169 475 +~ 1;
#X obj 385 674 outlet Shape;
#X obj 385 529 sel 0 1 2 3;
#X symbolatom 385 583 10 0 0 0 - - - 0;
#X msg 385 558 symbol sine;
#X symbolatom 404 632 10 0 0 0 - - - 0;
#X symbolatom 480 583 10 0 0 0 - - - 0;
#X symbolatom 529 633 10 0 0 0 - - - 0;
#X msg 480 558 symbol saw;
#X msg 404 607 symbol triangle;
#X msg 529 608 symbol square;
#X text 215 336 saw;
#X text 119 185 sine;
#X text 180 245 triangle;
#X text 231 395 square;
#X obj 169 451 clip~ -1 1;
#X obj 169 427 *~ 1e+10;
#X connect 0 0 6 0;
#X connect 1 0 8 0;
#X connect 2 0 7 0;
#X connect 3 0 4 0;
#X connect 4 0 1 0;
#X connect 6 0 11 0;
#X connect 7 0 14 0;
#X connect 8 0 6 1;
#X connect 8 0 5 0;
#X connect 9 0 2 0;
#X connect 9 0 12 0;
#X connect 9 0 21 0;
#X connect 9 0 27 0;
#X connect 10 0 0 1;
#X connect 10 0 1 0;
#X connect 12 0 16 0;
#X connect 13 0 25 1;
#X connect 14 0 25 0;
#X connect 15 0 19 0;
#X connect 15 0 20 0;
#X connect 15 0 23 0;
#X connect 15 0 29 0;
#X connect 15 0 32 0;
#X connect 16 0 13 0;
#X connect 17 0 18 0;
#X connect 18 0 12 1;
#X connect 18 0 2 1;
#X connect 18 0 21 1;
#X connect 18 0 27 1;
#X connect 19 0 13 1;
#X connect 20 0 14 1;
#X connect 21 0 24 0;
#X connect 22 0 25 2;
#X connect 23 0 22 1;
#X connect 24 0 22 0;
#X connect 25 0 26 0;
#X connect 26 0 0 0;
#X connect 26 1 0 0;
#X connect 26 2 0 0;
#X connect 26 3 0 0;
#X connect 27 0 46 0;
#X connect 28 0 25 3;
#X connect 29 0 28 1;
#X connect 30 0 28 0;
#X connect 32 0 34 0;
#X connect 32 1 39 0;
#X connect 32 2 38 0;
#X connect 32 3 40 0;
#X connect 33 0 31 0;
#X connect 34 0 33 0;
#X connect 35 0 31 0;
#X connect 36 0 31 0;
#X connect 37 0 31 0;
#X connect 38 0 36 0;
#X connect 39 0 35 0;
#X connect 40 0 37 0;
#X connect 45 0 30 0;
#X connect 46 0 45 0;
