#N canvas 266 290 624 300 12;
#X obj 114 4 correlation;
#X obj 114 64 snapshot~;
#X obj 215 3 tgl 19 0 empty empty empty 0 -10 0 12 #fcfcfc #000000 #000000 0 1;
#X obj 289 0 loadbang;
#X obj 114 -23 inlet~ x;
#X obj 188 -21 inlet~ y;
#X obj 101 118 cnv 19 198 51 empty empty empty 20 12 0 12 #dfdfdf #404040 0;
#X obj 125 148 cnv 19 40 20 empty empty empty 20 12 0 12 #c7c6ff #404040 0;
#X floatatom 126 148 5 0 0 0 - - - 0;
#X text 281 128 1;
#X text 108 128 -1;
#X text 199 147 0;
#X obj 216 34 metro \$1;
#X msg 289 24 100;
#X obj 129 124 hsl 150 25 -1 1 0 0 empty empty empty -2 -10 0 12 #ffffff #000000 #000000 0 1;
#X connect 0 0 1 0;
#X connect 1 0 14 0;
#X connect 1 0 8 0;
#X connect 2 0 12 0;
#X connect 3 0 2 0;
#X connect 3 0 13 0;
#X connect 4 0 0 0;
#X connect 5 0 0 1;
#X connect 12 0 1 0;
#X connect 13 0 12 1;
#X coords 0 -1 100 100 200 70 1 100 100;
