#N canvas 569 60 588 487 12;
#X obj 180 189 correlation;
#X obj 180 247 snapshot~;
#X obj 281 188 tgl 19 0 empty empty empty 0 -10 0 12 #fcfcfc #000000 #000000 0 1;
#X obj 183 315 hsl 162 19 -1 1 0 0 empty empty empty -2 -10 0 12 #fcfcfc #000000 #000000 0 1;
#X floatatom 180 339 5 0 0 0 - - - 0;
#X obj 255 128 delwrite~ delay 100;
#X obj 180 94 osc~ 440;
#X msg 279 73 0;
#X obj 281 220 metro 50;
#X obj 254 153 delread~ delay 25;
#X obj 355 185 loadbang;
#X connect 0 0 1 0;
#X connect 1 0 3 0;
#X connect 2 0 8 0;
#X connect 3 0 4 0;
#X connect 6 0 0 0;
#X connect 6 0 5 0;
#X connect 7 0 6 1;
#X connect 8 0 1 0;
#X connect 9 0 0 1;
#X connect 10 0 2 0;
