#N canvas 501 63 588 487 12;
#X obj 244 105 delwrite~ delay 100;
#X obj 50 68 osc~ 440;
#X msg 103 41 0;
#X obj 243 130 delread~ delay 20;
#X obj 51 172 correlationGUI 100;
#X connect 1 0 0 0;
#X connect 1 0 4 0;
#X connect 2 0 1 1;
#X connect 3 0 4 1;
