#N canvas 646 131 634 446 12;
#X obj 73 38 inlet~ x;
#X obj 149 38 inlet~ y;
#X obj 73 73 hip~ 1;
#X obj 149 75 hip~ 1;
#X obj 55 120 *~;
#X obj 149 120 *~;
#X obj 102 120 *~;
#X obj 102 345 /~;
#X obj 131 270 *~;
#X obj 131 294 sqrt~;
#X obj 102 369 clip~ -1 1;
#X obj 339 49 block~ 1024 1 1;
#X obj 102 184 fexpr~ $y1 + $x1 - $x1[-1023];
#X obj 55 233 fexpr~ $y1 + $x1 - $x1[-1023];
#X obj 131 319 max~ 1e-12;
#X text 69 10 normalized cross-correlation;
#X obj 149 148 fexpr~ $y1 + $x1 - $x1[-1023];
#X obj 102 401 outlet~ rxy;
#X text 193 401 sample Pearson correlation coefficient;
#X connect 0 0 2 0;
#X connect 1 0 3 0;
#X connect 2 0 4 0;
#X connect 2 0 4 1;
#X connect 2 0 6 0;
#X connect 3 0 5 0;
#X connect 3 0 5 1;
#X connect 3 0 6 1;
#X connect 4 0 13 0;
#X connect 5 0 16 0;
#X connect 6 0 12 0;
#X connect 7 0 10 0;
#X connect 8 0 9 0;
#X connect 9 0 14 0;
#X connect 10 0 17 0;
#X connect 12 0 7 0;
#X connect 13 0 8 0;
#X connect 14 0 7 1;
#X connect 16 0 8 1;
