#N canvas 132 42 685 634 12;
#X obj 76 93 openpanel;
#X obj 76 165 soundfiler;
#N canvas 0 22 450 278 (subpatch) 0;
#X array x 1.26094e+07 float 2;
#X coords 0 1 1.26094e+07 -1 200 140 1 0 0;
#X restore 452 70 graph;
#X listbox 76 117 20 0 0 0 - - - 0;
#X msg 76 142 read -resize -wave \$1 x;
#X obj 255 94 openpanel;
#X listbox 255 118 20 0 0 0 - - - 0;
#X msg 255 142 read -resize -wave \$1 y;
#N canvas 0 22 450 278 (subpatch) 0;
#X array y 4.27398e+06 float 2;
#X coords 0 1 4.27398e+06 -1 200 140 1;
#X restore 453 228 graph;
#X obj 76 237 min;
#X obj 76 211 array size x;
#X obj 76 284 until;
#X obj 76 312 f;
#X obj 114 305 + 1;
#X obj 161 298 sel 0;
#X obj 76 34 bng 19 250 50 0 empty empty empty 0 -10 0 12 #fcfcfc #000000 #000000;
#X obj 114 331 mod;
#X obj 76 187 bng 19 250 50 0 empty empty empty 0 -10 0 12 #fcfcfc #000000 #000000;
#X obj 255 165 soundfiler;
#X obj 255 187 bng 19 250 50 0 empty empty empty 0 -10 0 12 #fcfcfc #000000 #000000;
#X obj 255 211 array size y;
#X obj 76 67 t b b;
#X obj 76 261 bng 19 250 50 0 empty empty empty 0 -10 0 12 #fcfcfc #000000 #000000;
#X obj 76 354 tabread x;
#X obj 155 354 tabread y;
#X obj 76 384 *;
#X obj 76 454 f;
#X obj 76 430 + 0;
#X msg 188 402 0;
#X obj 155 383 *;
#X obj 155 454 f;
#X obj 155 430 + 0;
#X obj 135 67 s reset;
#X obj 188 381 r reset;
#X obj 116 384 *;
#X obj 116 430 + 0;
#X obj 116 454 f;
#X obj 110 508 sqrt;
#X obj 110 486 *;
#X obj 76 485 /;
#X floatatom 76 557 14 0 0 0 - - - 0;
#X obj 76 530 clip -1 1;
#X text 178 559 correlation coefficient r;
#X text 103 237 we truncate;
#X connect 0 0 3 0;
#X connect 1 0 17 0;
#X connect 3 0 4 0;
#X connect 4 0 1 0;
#X connect 5 0 6 0;
#X connect 6 0 7 0;
#X connect 7 0 18 0;
#X connect 9 0 16 1;
#X connect 9 0 22 0;
#X connect 10 0 9 0;
#X connect 11 0 12 0;
#X connect 12 0 13 0;
#X connect 12 0 24 0;
#X connect 12 0 23 0;
#X connect 13 0 16 0;
#X connect 14 0 11 1;
#X connect 15 0 21 0;
#X connect 15 0 32 0;
#X connect 16 0 12 1;
#X connect 16 0 14 0;
#X connect 17 0 10 0;
#X connect 18 0 19 0;
#X connect 19 0 20 0;
#X connect 20 0 9 1;
#X connect 21 0 0 0;
#X connect 21 1 5 0;
#X connect 22 0 11 0;
#X connect 23 0 25 0;
#X connect 23 0 25 1;
#X connect 23 0 34 0;
#X connect 24 0 29 0;
#X connect 24 0 29 1;
#X connect 24 0 34 1;
#X connect 25 0 27 0;
#X connect 26 0 27 1;
#X connect 26 0 38 0;
#X connect 27 0 26 0;
#X connect 28 0 27 1;
#X connect 28 0 31 1;
#X connect 28 0 35 1;
#X connect 29 0 31 0;
#X connect 30 0 31 1;
#X connect 30 0 38 1;
#X connect 31 0 30 0;
#X connect 33 0 28 0;
#X connect 34 0 35 0;
#X connect 35 0 36 0;
#X connect 36 0 35 1;
#X connect 36 0 39 0;
#X connect 37 0 39 1;
#X connect 38 0 37 0;
#X connect 39 0 41 0;
#X connect 41 0 40 0;
